<svg width="1494" height="790" viewBox="0 0 1494 790" fill="none" xmlns="http://www.w3.org/2000/svg">
<g clip-path="url(#clip0_60_3984)">
<rect y="0.666992" width="1494" height="789" fill="#F9B34A"/>
<circle cx="522.5" cy="268.167" r="221.5" fill="#DB502F"/>
<circle cx="522.5" cy="268.167" r="104.5" fill="#FAC777"/>
<path d="M41.2284 263.325C14.3339 264.595 -3.41954 398.504 -21.8211 447.385C-40.2226 496.266 -21.8229 775.585 -21.8229 775.585L1489.94 810.5V221.391C1489.94 221.391 1493.47 204.885 1448.18 201.711C1402.88 198.537 1296.01 232.182 1249.3 232.182C1202.59 232.182 1053.95 218.216 1010.07 221.391C966.192 224.565 766.241 232.817 723.776 232.182C681.311 231.548 556.412 224.565 523.148 232.182C489.883 239.8 286.827 251.827 252.147 249.922C217.468 248.018 68.1229 262.055 41.2284 263.325Z" fill="#4A6552"/>
<g filter="url(#filter0_i_60_3984)">
<path d="M81 759.185L1610 664V680.696H1576.77C1587.94 685.174 1603.57 693.784 1576.77 692.402C1549.96 691.02 1533.74 684.022 1528.98 680.696C1526.6 684.598 1508.43 692.402 1454.82 692.402C1401.21 692.402 1418.2 704.684 1433.4 710.825C1403 706.987 1335.57 699.618 1308.98 700.846C1282.39 702.074 1313.83 715.815 1332.87 722.531C1280.32 718.629 1173.79 710.825 1168.08 710.825C1160.94 710.825 1134.57 722.531 1168.08 722.531H1046.13C1046.91 727.763 1052.63 738.488 1069.2 741.924C1075.25 742.782 1076.98 743.101 1072.5 742.49C1071.35 742.333 1070.25 742.143 1069.2 741.924C1042.96 738.209 935.601 724.403 900.568 732.51C868.635 739.9 878.72 756.466 896.226 758.888C897.697 758.989 899.145 759.088 900.568 759.185C899.085 759.185 897.632 759.082 896.226 758.888C817.12 753.464 670.549 743.358 661.951 742.542C665.936 743.764 673.518 765.917 690.55 773.42C704.772 774.672 710.652 775.881 702.268 775.881C697.931 775.881 694.042 774.959 690.55 773.42C660.512 770.775 593.266 767.937 544.616 775.881C487.268 785.246 433.015 768.653 413.057 759.185L436.952 787.587C405.184 783.685 340.658 775.881 336.703 775.881C331.759 775.881 267.216 787.587 205.144 787.587C155.486 787.587 214.848 803.196 250.736 811C194.158 805.946 81 788.509 81 759.185Z" fill="#FAC777"/>
</g>
</g>
<rect x="11" y="11.667" width="1472" height="767" stroke="#FDF0D5" stroke-width="22"/>
<defs>
<filter id="filter0_i_60_3984" x="81" y="664" width="1529" height="147" filterUnits="userSpaceOnUse" color-interpolation-filters="sRGB">
<feFlood flood-opacity="0" result="BackgroundImageFix"/>
<feBlend mode="normal" in="SourceGraphic" in2="BackgroundImageFix" result="shape"/>
<feColorMatrix in="SourceAlpha" type="matrix" values="0 0 0 0 0 0 0 0 0 0 0 0 0 0 0 0 0 0 127 0" result="hardAlpha"/>
<feOffset dx="-42" dy="14"/>
<feComposite in2="hardAlpha" operator="arithmetic" k2="-1" k3="1"/>
<feColorMatrix type="matrix" values="0 0 0 0 0.992157 0 0 0 0 0.941176 0 0 0 0 0.835294 0 0 0 1 0"/>
<feBlend mode="normal" in2="shape" result="effect1_innerShadow_60_3984"/>
</filter>
<clipPath id="clip0_60_3984">
<rect y="0.666992" width="1494" height="789" fill="white"/>
</clipPath>
</defs>
</svg>
