<svg width="632" height="632" viewBox="0 0 632 632" fill="none" xmlns="http://www.w3.org/2000/svg">
<mask id="mask0_112_4718" style="mask-type:alpha" maskUnits="userSpaceOnUse" x="0" y="0" width="632" height="632">
<path d="M316 0C490.522 0 632 141.478 632 316C632 490.522 490.522 632 316 632C141.478 632 0 490.522 0 316C0 141.478 141.478 0 316 0ZM316 173.75C237.438 173.75 173.75 237.438 173.75 316C173.75 394.562 237.438 458.249 316 458.249C394.562 458.249 458.249 394.562 458.249 316C458.249 237.438 394.562 173.75 316 173.75Z" fill="#FFFDF8"/>
</mask>
<g mask="url(#mask0_112_4718)">
<circle cx="316" cy="333.242" r="333.242" fill="#FAC777"/>
<path d="M329.85 350.953L3.9776 177.437L150.978 27.9892L329.85 350.953Z" fill="#DB502F"/>
<path d="M303.716 350.953L629.589 177.437L482.589 27.9892L303.716 350.953Z" fill="#DB502F"/>
<path d="M312.999 304.465L638.872 477.981L491.872 627.429L312.999 304.465Z" fill="#DB502F"/>
<path d="M345.766 292.529L19.8936 466.045L166.894 615.492L345.766 292.529Z" fill="#DB502F"/>
<circle cx="320.643" cy="300.747" r="308.705" fill="#FDF0D5"/>
<circle cx="316" cy="326.611" r="150.871" fill="#FDF0D5"/>
<g opacity="0.4">
<path d="M329.85 350.953L3.9776 177.437L150.978 27.9892L329.85 350.953Z" fill="#DB502F"/>
<path d="M303.716 350.953L629.589 177.437L482.589 27.9892L303.716 350.953Z" fill="#DB502F"/>
<path d="M312.999 304.465L638.872 477.981L491.872 627.429L312.999 304.465Z" fill="#DB502F"/>
<path d="M345.766 292.529L19.8936 466.045L166.894 615.492L345.766 292.529Z" fill="#DB502F"/>
</g>
<g opacity="0.7">
<path d="M329.856 350.953L3.98345 177.437L150.983 27.9892L329.856 350.953Z" fill="#DB502F"/>
<path d="M303.718 350.953L629.591 177.437L482.591 27.9892L303.718 350.953Z" fill="#DB502F"/>
<path d="M313.001 304.471L638.874 477.987L491.874 627.435L313.001 304.471Z" fill="#DB502F"/>
<path d="M345.772 292.534L19.8995 466.05L166.899 615.497L345.772 292.534Z" fill="#DB502F"/>
<path d="M36.9766 316.331C39.6498 372.931 76.8732 498.593 204.381 548.437C171.124 534.568 91.0845 468.731 36.9766 316.331Z" fill="#FFFDF8"/>
<path d="M595.619 242.128C593.134 207.331 566.917 128.897 481.933 93.5353C504.109 103.29 557.894 146.666 595.619 242.128Z" fill="#FFFDF8"/>
</g>
</g>
</svg>
